# xmcd
#
# Track frame offsets:
#	150
#	17135
#	32739
#	49569
#	67718
#	81880
#	100288
#	117371
#	133186
#	149697
#	168275
#	184345
#	199711
#	215160
#	230487
#	245609
#	262709
#	277683
#	294398
#	311866
#	326520
#
# Disc length: 4591 seconds
#
# Revision: 0
# Processed by: cddbd v1.5.2PL0 Copyright (c) Steve Scherf et al.
# Submitted via: audiograbber 1.83.01
#
DISCID=3411ed15
DTITLE=Various Artist - Radioactive Rhythm and Top 40 - July 2013
DYEAR=2013
DGENRE=Pop
TTITLE0=Gavin DeGraw - Best I Ever Had
TTITLE1=Arianna Feat. Pitbull - Sexy People (That Fiat Song)
TTITLE2=Jessie J Feat. Big Sean - Wild
TTITLE3=Mike Posner - The Way It Used To Be
TTITLE4=Martin Solveig and The Cataracs Feat. Kyle - Hey Now
TTITLE5=Britney Spears - Ooh La La
TTITLE6=Jonas Brothers - First Time
TTITLE7=Jamie Drastik Feat. Pitbull And Havana Brown - Chasing Shadows
TTITLE8=Backstreet Boys - In A World Like This
TTITLE9=Avicii - Wake Me Up
TTITLE10=Kaptn - Ricky Ricardo
TTITLE11=Parachute - Can't Help
TTITLE12=Empire Of The Sun - Alive
TTITLE13=Austin Mahone - What About Love
TTITLE14=Twenty One Pilots - Holding On To You
TTITLE15=Sub Focus Feat. Alpines - Tidal Wave
TTITLE16=Karmin - Acapella
TTITLE17=Jessie Ware - Wildest Moments
TTITLE18=Miley Cyrus - We Can't Stop
TTITLE19=Fifth Harmony - Miss Movin' On
TTITLE20=Chris Brown Feat. Aaliyah - Don't Think They Know
EXTD=
EXTT0=
EXTT1=
EXTT2=
EXTT3=
EXTT4=
EXTT5=
EXTT6=
EXTT7=
EXTT8=
EXTT9=
EXTT10=
EXTT11=
EXTT12=
EXTT13=
EXTT14=
EXTT15=
EXTT16=
EXTT17=
EXTT18=
EXTT19=
EXTT20=
PLAYORDER=
